<?xml version="1.0" encoding="utf-8"?>
<!-- Generator: Adobe Illustrator 25.1.0, SVG Export Plug-In . SVG Version: 6.00 Build 0)  -->
<svg version="1.1" id="Layer_1" xmlns="http://www.w3.org/2000/svg" xmlns:xlink="http://www.w3.org/1999/xlink" x="0px" y="0px"
	 viewBox="0 0 502 502" style="enable-background:new 0 0 502 502;" xml:space="preserve">
<style type="text/css">
	.st0{fill:#87A6D3;}
</style>
<path class="st0" d="M111.8,278.1l-66.9,68.8l38.3,38.3l11.3-11.3l-27.2-27.2l55.9-57.5L111.8,278.1z"/>
<path class="st0" d="M127.8,261.6l15.5-16l11.5,11.1l-15.5,16L127.8,261.6z"/>
<path class="st0" d="M290.9,48l-95.2,97.9L45.7,10.3C41,5.9,34.8,3.4,28.4,3.4C14.5,3.4,3.2,14.7,3.2,28.6c0,6.5,2.4,12.6,6.7,17.1
	l136.4,150.9L0,347.2L151.8,499h118.6L502,259.1L290.9,48z M19.2,28.6c0-5.1,4.1-9.2,9.2-9.2c2.4,0,4.6,0.9,6.4,2.6L197.4,169
	l18.3,18.3l-28.7,28.7l-18-18L21.7,34.9C20.1,33.2,19.2,31,19.2,28.6z M355.9,275.2c6.7,0,12.9-2.6,17.6-7.3l14.1-14
	c1.7-1.7,3.9-2.6,6.3-2.6c4.9,0,9,4,9,9c0,2.4-1,4.7-2.6,6.3L266.3,400.5c-1.7,1.7-3.9,2.6-6.3,2.6c-4.9,0-9-4-9-9
	c0-2.4,1-4.7,2.6-6.3l14.1-14c4.6-4.6,7.3-11.1,7.3-17.6c0-13.8-11.2-24.9-24.9-24.9c-6.7,0-12.9,2.6-17.6,7.3l-62,62
	c-1.7,1.7-3.9,2.6-6.3,2.6c-4.9,0-9-4-9-9c0-2.4,1-4.7,2.6-6.3l81.7-81.7c11.1,10.8,26.2,17.1,42,17.1c13,0,25.9-4.3,36.3-12.1
	l28.3-21.2l-11.6-5.8c-15.8-7.9-28.8-20.3-37.5-35.5l50.6-50.6c1.7-1.7,3.9-2.6,6.3-2.6c4.9,0,9,4,9,9c0,2.4-0.9,4.6-2.6,6.3l-22,22
	c-4.7,4.7-7.3,11-7.3,17.6C330.9,264,342.1,275.2,355.9,275.2z M316.5,292l-8.3,6.2c-7.6,5.7-17.1,8.9-26.7,8.9
	c-15.9,0-30.7-8.6-38.6-22.4l-12.7-22.2c-2-3.6-3.1-7.6-3.1-11.7c0-13,10.6-23.6,23.6-23.6h3.5c9.4,0,18,5.6,21.7,14.3l1.7,4
	C285.7,264.5,299.3,280.7,316.5,292z M217.7,228.9l-15.8-5.2l21.6-21.6l5.2,15.8C224.4,220.8,220.6,224.6,217.7,228.9z M157.1,208.5
	l0.3,0.4l25.3,25.3l29,9.6c-0.4,2.3-0.7,4.6-0.7,7c0,6.9,1.8,13.7,5.2,19.6l12.7,22.2c0.2,0.3,0.4,0.5,0.5,0.8l-83,83
	c-4.6,4.6-7.3,11.1-7.3,17.6c0,13.8,11.2,24.9,24.9,24.9c6.7,0,12.9-2.6,17.6-7.3l62-62c1.7-1.7,3.9-2.6,6.3-2.6c4.9,0,9,4,9,9
	c0,2.4-1,4.7-2.6,6.3l-14.1,14.1c-4.6,4.6-7.3,11.1-7.3,17.6c0,13.8,11.2,24.9,24.9,24.9c6.7,0,12.9-2.6,17.6-7.3l133.9-133.9
	c4.6-4.6,7.3-11.1,7.3-17.6c0-13.8-11.2-24.9-24.9-24.9c-6.7,0-12.9,2.6-17.6,7.3l-14.1,14.1c-1.7,1.7-3.9,2.6-6.3,2.6
	c-4.9,0-9-4-9-9c0-2.4,0.9-4.6,2.6-6.3l22-22c4.7-4.7,7.3-11,7.3-17.6c0-13.8-11.2-24.9-24.9-24.9c-6.7,0-12.9,2.6-17.6,7.3
	l-46.8,46.8c-6.6-13.4-20.3-22.1-35.4-22.1h-3.5c-2.4,0-4.7,0.3-7,0.7l-9.6-29l-25.6-25.6l-0.8-0.7l83.5-85.8l188.5,188.5
	L266.9,479.6L211,423.8l-56,56L22.4,347.1L157.1,208.5z M247.7,483h-73.3l36.7-36.7L247.7,483z"/>
</svg>
