<?xml version="1.0" encoding="utf-8"?>
<!-- Generator: Adobe Illustrator 25.1.0, SVG Export Plug-In . SVG Version: 6.00 Build 0)  -->
<svg version="1.1" id="Layer_5" xmlns="http://www.w3.org/2000/svg" xmlns:xlink="http://www.w3.org/1999/xlink" x="0px" y="0px"
	 viewBox="0 0 512 512" style="enable-background:new 0 0 512 512;" xml:space="preserve">
<style type="text/css">
	.st0{fill:#87A6D3;}
</style>
<g>
	<path class="st0" d="M464,360H344V174.3c2.9-1.5,5.7-3.1,8.5-4.9l28.6,35.8c-13,13-21.1,31-21.1,50.8c0,39.7,32.3,72,72,72
		s72-32.3,72-72c0-39.7-32.3-72-72-72c-14.1,0-27.3,4.1-38.4,11.2l-28.7-35.8c14.8-14.3,24.7-33.7,26.7-55.4h19.5h8l16,32h65.9
		l-20-40l20-40h-65.9l-16,32h-8h-19.5C387.5,43.2,349.8,8,304,8c-21.4,0-41.1,7.7-56.4,20.5C245.9,16.9,236,8,224,8h-96
		c-10.4,0-19.2,6.7-22.5,16H48C25.9,24,8,41.9,8,64v400c0,22.1,17.9,40,40,40h256c22.1,0,40-17.9,40-40v-24h120
		c22.1,0,40-17.9,40-40S486.1,360,464,360z M488,256c0,30.9-25.1,56-56,56s-56-25.1-56-56c0-30.9,25.1-56,56-56S488,225.1,488,256z
		 M444.9,120l-8-16H456h11.1l8,16H444.9z M444.9,72h30.1l-8,16H456h-19.1L444.9,72z M105.5,72c3.3,9.3,12.1,16,22.5,16h88.4
		c-0.2,2.6-0.4,5.3-0.4,8c0,25.6,11.1,48.7,28.6,64.8l-12.2,16C216.1,166.2,196.8,160,176,160c-57.3,0-104,46.7-104,104
		s46.7,104,104,104s104-46.7,104-104c0-30.8-13.5-58.4-34.9-77.5l12.2-16c11.4,7.2,24.6,11.8,38.7,13.1V360h-41.5l-57.9,21.7
		c-7.6,2.8-12.7,10.2-12.7,18.3s5.1,15.4,12.7,18.3l57.9,21.7H296v16H56V72H105.5z M216,304h-16v-64h16V304z M184,304h-16v-48v-32
		h16V304z M152,304h-16v-32h16V304z M243.8,320c-16.2,19.5-40.6,32-67.8,32s-51.7-12.5-67.8-32H243.8z M254.3,304H232v-80h-32v-16
		h-48v48h-32v48H97.7c-6.2-12-9.7-25.6-9.7-40c0-48.5,39.5-88,88-88s88,39.5,88,88C264,278.4,260.4,292,254.3,304L254.3,304z
		 M202.3,403.3c-1.4-0.5-2.3-1.9-2.3-3.3s0.9-2.8,2.3-3.3l45.7-17.1v40.9L202.3,403.3z M264,424v-16h160v16H264z M424,392H264v-16
		h160V392z M328,360h-16V183.6c5.5-0.5,10.8-1.5,16-3V360z M304,24c37,0,67.5,28.1,71.5,64h-32.3c-3.7-18.2-19.9-32-39.2-32
		c-22.1,0-40,17.9-40,40s17.9,40,40,40c19.3,0,35.5-13.8,39.2-32h32.3c-4,35.9-34.5,64-71.5,64c-39.7,0-72-32.3-72-72
		S264.3,24,304,24z M326.5,104c-3.3,9.3-12.1,16-22.5,16c-13.2,0-24-10.8-24-24s10.8-24,24-24c10.4,0,19.2,6.7,22.5,16H296v16H326.5
		z M120,32c0-4.4,3.6-8,8-8h96c4.4,0,8,3.6,8,8v13.6c-5.6,7.9-9.9,16.8-12.6,26.4L128,72c-4.4,0-8-3.6-8-8L120,32z M328,464
		c0,13.2-10.8,24-24,24H48c-13.2,0-24-10.8-24-24V64c0-13.2,10.8-24,24-24h56v16H56c-8.8,0-16,7.2-16,16v384c0,8.8,7.2,16,16,16h240
		c8.8,0,16-7.2,16-16v-16h16V464z M464,424h-24v-48h24c13.2,0,24,10.8,24,24S477.2,424,464,424z"/>
	<path class="st0" d="M392,275.1c0,11.5,9.4,20.9,20.9,20.9c3.2,0,6.5-0.8,9.4-2.2l38.1-19.1c7.1-3.6,11.6-10.8,11.6-18.7
		c0-8-4.4-15.2-11.6-18.7l-38.1-19.1c-2.9-1.4-6.1-2.2-9.4-2.2c-11.5,0-20.9,9.4-20.9,20.9V275.1z M408,236.9c0-2.7,2.2-4.9,4.9-4.9
		c0.8,0,1.5,0.2,2.2,0.5l38.1,19.1c1.7,0.8,2.7,2.5,2.7,4.4c0,1.9-1,3.6-2.7,4.4l-38.1,19.1c-3.1,1.6-7.2-0.9-7.2-4.4V236.9z"/>
	<path class="st0" d="M72,392h96v16H72V392z"/>
	<path class="st0" d="M72,424h96v16H72V424z"/>
	<path class="st0" d="M72,104h16v16H72V104z"/>
	<path class="st0" d="M104,104h96v16h-96V104z"/>
	<path class="st0" d="M72,136h16v16H72V136z"/>
	<path class="st0" d="M104,136h96v16h-96V136z"/>
</g>
</svg>
