<?xml version="1.0" encoding="utf-8"?>
<!-- Generator: Adobe Illustrator 25.1.0, SVG Export Plug-In . SVG Version: 6.00 Build 0)  -->
<svg version="1.1" id="Layer_5" xmlns="http://www.w3.org/2000/svg" xmlns:xlink="http://www.w3.org/1999/xlink" x="0px" y="0px"
	 viewBox="0 0 512 512" style="enable-background:new 0 0 512 512;" xml:space="preserve">
<style type="text/css">
	.st0{fill:#87A6D3;}
</style>
<path class="st0" d="M480,8H64C50.8,8,40,18.8,40,32v232h-8c-13.2,0-24,10.8-24,24s10.8,24,24,24h39.1l23.6,129.5
	C81.6,445.6,72,457.6,72,472c0,17.6,14.4,32,32,32s32-14.4,32-32c0-5.9-1.7-11.3-4.4-16h104.9c-2.8,4.7-4.5,10.1-4.5,16
	c0,17.6,14.4,32,32,32s32-14.4,32-32s-14.4-32-32-32H110.7l-2.9-16h121.5c12.9,0,24.5-6.2,31.8-16h124.8l64-32H480
	c13.2,0,24-10.8,24-24V32C504,18.8,493.2,8,480,8z M64,24h416c4.4,0,8,3.6,8,8v40H56V32C56,27.6,59.6,24,64,24z M32,296
	c-4.4,0-8-3.6-8-8s3.6-8,8-8h26.6c3.9,0,7.2,2.8,7.9,6.6l1.7,9.4H32z M258,360h-26v-32h31.9L258,360z M216,360h-32v-32h32V360z
	 M216,408h-32v-32h32V408z M168,408h-32v-32h32V408z M168,360h-32v-32h32V360z M120,360H96.1l-5.8-32H120V360z M120,472
	c0,8.8-7.2,16-16,16s-16-7.2-16-16s7.2-16,16-16S120,463.2,120,472z M280,472c0,8.8-7.2,16-16,16s-16-7.2-16-16s7.2-16,16-16
	S280,463.2,280,472z M99,376h21v32h-15.1L99,376z M232,407.8V376h23.1l-2.2,12.3C251,398.8,242.4,406.6,232,407.8L232,407.8z
	 M277.2,344H376v48H268.4c0.1-0.3,0.2-0.6,0.2-0.8L277.2,344z M392,387.1v-38.1l38.1,19.1L392,387.1z M480,360h-30.1l-64-32h-106
	l0.1-16H87.4l-5.1-28.3c-2.1-11.4-12-19.7-23.6-19.7H56V88h432v264C488,356.4,484.4,360,480,360z"/>
<path class="st0" d="M104,40h16v16h-16V40z"/>
<path class="st0" d="M136,40h16v16h-16V40z"/>
<path class="st0" d="M72,40h16v16H72V40z"/>
<path class="st0" d="M424,136h16v16h-16V136z"/>
<path class="st0" d="M392,136h16v16h-16V136z"/>
<path class="st0" d="M360,136h16v16h-16V136z"/>
<path class="st0" d="M168,280h16v16h-16V280z"/>
<path class="st0" d="M136,280h16v16h-16V280z"/>
<path class="st0" d="M104,280h16v16h-16V280z"/>
<path class="st0" d="M280,232h192V104H280V232z M296,120h160v96H296V120z"/>
<path class="st0" d="M472,248H280v64h192V248z M456,296H296v-32h160V296z"/>
<path class="st0" d="M72,232h192V104H72V232z M182.9,168l65.1-41.4v82.8L182.9,168z M228.5,216H107.5l60.5-38.5L228.5,216z
	 M168,158.5L107.5,120h121L168,158.5z M153.1,168L88,209.4v-82.8L153.1,168z"/>
</svg>
