<?xml version="1.0" encoding="utf-8"?>
<!-- Generator: Adobe Illustrator 25.1.0, SVG Export Plug-In . SVG Version: 6.00 Build 0)  -->
<svg version="1.1" id="Layer_1" xmlns="http://www.w3.org/2000/svg" xmlns:xlink="http://www.w3.org/1999/xlink" x="0px" y="0px"
	 viewBox="0 0 496 496" style="enable-background:new 0 0 496 496;" xml:space="preserve">
<style type="text/css">
	.st0{fill:#87A6D3;}
</style>
<path class="st0" d="M200,144c-83.8,0-152,68.2-152,152s68.2,152,152,152s152-68.2,152-152S283.8,144,200,144z M200,432
	c-75,0-136-61-136-136s61-136,136-136s136,61,136,136S275,432,200,432z"/>
<path class="st0" d="M125.7,390.3c4.5,3.6,9.3,6.8,14.3,9.7l8-13.9c-4.2-2.5-8.4-5.3-12.3-8.4L125.7,390.3z"/>
<path class="st0" d="M273.5,369.5c-31,31-78.5,39.2-118.1,20.5l-6.9,14.5c16.4,7.8,33.9,11.5,51.3,11.5c31.2,0,62-12.1,85-35.1
	c2.5-2.5,4.8-5.1,7.1-7.7l-12.2-10.3C277.7,365.2,275.7,367.4,273.5,369.5z"/>
<path class="st0" d="M160,320c0-17.6-14.4-32-32-32c-8.8,0-16-7.2-16-16s7.2-16,16-16s16,7.2,16,16h16c0-17.6-14.4-32-32-32
	s-32,14.4-32,32s14.4,32,32,32c8.8,0,16,7.2,16,16s-7.2,16-16,16s-16-7.2-16-16H96c0,17.6,14.4,32,32,32S160,337.6,160,320z"/>
<path class="st0" d="M224,336h-32v-32h32v-16h-32v-32h32v-16h-48v112h48V336z"/>
<path class="st0" d="M272,240c-17.6,0-32,14.4-32,32v48c0,17.6,14.4,32,32,32s32-14.4,32-32v-48C304,254.4,289.6,240,272,240z
	 M288,320c0,8.8-7.2,16-16,16s-16-7.2-16-16v-48c0-8.8,7.2-16,16-16s16,7.2,16,16V320z"/>
<path class="st0" d="M446.5,104.4C439.2,67.3,406.6,40,368,40c-10.9,0-21.6,2.3-31.4,6.5C323.8,19.1,296.1,0,264,0
	c-44.1,0-80,35.9-80,80c0,5.4,0.6,10.8,1.7,16h-15.3l-7.1,19.7c-23.3,4.7-45,13.7-64.8,26.8l-19-8.9l-41.9,41.9l8.9,19
	c-13.1,19.8-22.2,41.5-26.8,64.8L0,266.4v59.2l19.7,7.1c4.7,23.2,13.7,45,26.8,64.8l-8.9,19l41.9,41.9l19-8.9
	c19.8,13.1,41.5,22.2,64.8,26.8l7.1,19.7h59.2l7.1-19.7c23.3-4.7,45-13.7,64.8-26.8l19,8.9l41.9-41.9l-8.9-19
	c13.1-19.8,22.2-41.5,26.8-64.8l19.7-7.1v-59.2l-19.7-7.1c-3.1-15.1-8.1-29.5-14.8-43.3H440c30.9,0,56-25.1,56-56
	C496,131.4,474.5,107.8,446.5,104.4z M384,277.6v36.8l-17.8,6.4l-0.8,4.6c-4.3,24.2-13.6,46.7-27.7,66.8L335,396l8.1,17.1l-26,26
	L300,431l-3.8,2.7c-20.2,14.1-42.7,23.4-66.8,27.7l-4.6,0.8l-6.4,17.8h-36.8l-6.4-17.8l-4.6-0.8c-24.2-4.3-46.7-13.6-66.8-27.7
	L100,431l-17.1,8.1l-26-26L65,396l-2.7-3.8c-14.1-20.2-23.4-42.7-27.7-66.8l-0.8-4.6L16,314.4v-36.8l17.8-6.4l0.8-4.6
	c4.3-24.2,13.6-46.7,27.7-66.8L65,196l-8.1-17.1l26-26L100,161l3.8-2.7c20.2-14.1,42.7-23.4,66.8-27.7l4.6-0.8l6.4-17.8h36.8
	l6.4,17.8l4.6,0.8c24.2,4.3,46.7,13.6,66.8,27.7l3.8,2.7l17.1-8.1l26,26L335,196l2.7,3.8c14.1,20.2,23.4,42.7,27.7,66.8l0.8,4.6
	L384,277.6z M440,200h-83.3c-1.1-1.8-2.1-3.7-3.3-5.5l8.9-19l-41.9-41.9l-19,8.9c-19.8-13.1-41.5-22.2-64.8-26.8L229.6,96H202
	c-1.3-5.2-2-10.6-2-16c0-35.3,28.7-64,64-64s64,28.7,64,64h16c0-6.3-0.8-12.4-2.2-18.3C350,58,358.9,56,368,56
	c32.7,0,60,24.5,63.6,56.9l1.2,7.1h7.2c22.1,0,40,17.9,40,40S462.1,200,440,200z"/>
<path class="st0" d="M216,80h16c0-17.6,14.4-32,32-32V32C237.5,32,216,53.5,216,80z"/>
<path class="st0" d="M368,72v16c17.6,0,32,14.4,32,32h16C416,93.5,394.5,72,368,72z"/>
</svg>
