<?xml version="1.0" encoding="utf-8"?>
<!-- Generator: Adobe Illustrator 25.1.0, SVG Export Plug-In . SVG Version: 6.00 Build 0)  -->
<svg version="1.1" id="_x33_0" xmlns="http://www.w3.org/2000/svg" xmlns:xlink="http://www.w3.org/1999/xlink" x="0px" y="0px"
	 viewBox="0 0 512 512" style="enable-background:new 0 0 512 512;" xml:space="preserve">
<style type="text/css">
	.st0{fill:#87A6D3;}
</style>
<g>
	<path class="st0" d="M216,107.2v-1.3c0-13.7-5.3-26.6-15-36.3c-8.8-8.8-20.5-13.7-33-13.7c-12,0-23.3,4.5-32,12.7
		c-8.7-8.2-20-12.7-32-12.7c-12.5,0-24.2,4.8-33,13.7c-9.7,9.7-15,22.6-15,36.3v1.3c0,15.5,6.6,30.3,18.2,40.6l61.8,54.9l61.8-54.9
		C209.4,137.5,216,122.7,216,107.2L216,107.2z M136,181.3l-51.1-45.5c-8.2-7.3-12.9-17.7-12.9-28.6v-1.3c0-9.4,3.7-18.3,10.3-25
		c5.8-5.8,13.5-9,21.7-9s15.9,3.2,21.7,9L136,91.3L146.3,81c11.6-11.6,31.7-11.6,43.3,0c6.7,6.7,10.3,15.5,10.3,25v1.3
		c0,10.9-4.7,21.4-12.9,28.6L136,181.3z"/>
	<path class="st0" d="M480,72H264V32c0-13.2-10.8-24-24-24H32C18.8,8,8,18.8,8,32v176c0,13.2,10.8,24,24,24h68.3l13.3,16H48
		c-13.2,0-24,10.8-24,24v160c0,13.2,10.8,24,24,24h84.3l34.3,41.2c3.6,4.3,8.9,6.8,14.5,6.8c10.4,0,18.9-8.5,18.9-18.9V456h88
		c13.2,0,24-10.8,24-24V296h16v29.1c0,10.4,8.5,18.9,18.9,18.9c5.6,0,10.9-2.5,14.5-6.8l34.3-41.2H480c13.2,0,24-10.8,24-24V96
		C504,82.8,493.2,72,480,72L480,72z M32,216c-4.4,0-8-3.6-8-8V32c0-4.4,3.6-8,8-8h208c4.4,0,8,3.6,8,8v176c0,4.4-3.6,8-8,8h-88v45.1
		c0,2.5-3.5,3.8-5.1,1.8l-39.1-47H32z M216,248h-48v-16h48V248z M296,432c0,4.4-3.6,8-8,8H184v45.1c0,2.5-3.5,3.8-5.1,1.8l-39.1-47
		H48c-4.4,0-8-3.6-8-8V272c0-4.4,3.6-8,8-8h78.9l7.7,9.2c3.6,4.3,8.9,6.8,14.5,6.8c9.4,0,17.2-7,18.6-16H216v8c0,13.2,10.8,24,24,24
		h56V432z M488,272c0,4.4-3.6,8-8,8h-91.7l-39.1,47c-1.6,1.9-5.1,0.6-5.1-1.8V280H240c-4.4,0-8-3.6-8-8v-40h8c13.2,0,24-10.8,24-24
		V88h216c4.4,0,8,3.6,8,8V272z"/>
	<path class="st0" d="M200,344c0,4.7,1.1,9.2,3,13.3c-3.4-3.1-7.3-5.7-11.4-7.7c5.2-5.7,8.5-13.2,8.5-21.5c0-17.6-14.4-32-32-32
		s-32,14.4-32,32c0,8.3,3.3,15.8,8.5,21.5c-4.2,2.1-8,4.7-11.4,7.7c1.9-4,3-8.5,3-13.3c0-17.6-14.4-32-32-32s-32,14.4-32,32
		c0,8.5,3.4,16.2,8.9,22C66.1,374.2,56,389.9,56,408v16h16v-16c0-17.6,14.4-32,32-32c5,0,9.9,1.2,14.3,3.4
		c-1.3,3.7-2.2,7.5-2.6,11.5l-3.6,32.2l15.9,1.8l3.6-32.2C133.6,374,149.3,360,168,360s34.4,14,36.5,32.6l3.6,32.2l15.9-1.8
		l-3.6-32.2c-0.4-4-1.4-7.8-2.6-11.5c4.4-2.2,9.2-3.4,14.3-3.4c17.6,0,32,14.4,32,32v16h16v-16c0-18.1-10.1-33.8-24.9-42
		c5.5-5.7,8.9-13.4,8.9-22c0-17.6-14.4-32-32-32S200,326.4,200,344L200,344z M88,344c0-8.8,7.2-16,16-16s16,7.2,16,16s-7.2,16-16,16
		S88,352.8,88,344z M152,328c0-8.8,7.2-16,16-16s16,7.2,16,16s-7.2,16-16,16S152,336.8,152,328z M248,344c0,8.8-7.2,16-16,16
		s-16-7.2-16-16s7.2-16,16-16S248,335.2,248,344z"/>
	<path class="st0" d="M424,152h-14.6l1.9-11.6c1.5-9.1-1-18.3-7-25.4c-6-7-14.7-11.1-23.9-11.1c-11,0-20.6,7.5-23.3,18.2
		c-2.9,11.6-8.9,22.2-17.4,30.7l-2.4,2.4c-2.7-2-5.9-3.2-9.5-3.2h-32c-8.8,0-16,7.2-16,16v80c0,8.8,7.2,16,16,16h32
		c7,0,12.9-4.5,15-10.8c14.2,7,29.8,10.8,45.8,10.8H424c17.6,0,32-14.4,32-32v-48C456,166.4,441.6,152,424,152L424,152z M296,248
		v-80h32l0,80H296z M440,232c0,8.8-7.2,16-16,16h-35.2c-15.9,0-31.3-4.3-44.8-12.5v-64.2l7.2-7.2c10.5-10.5,18-23.7,21.6-38.1
		c0.9-3.6,4.1-6.1,7.8-6.1c4.5,0,8.8,2,11.7,5.4c2.9,3.4,4.2,8,3.4,12.4l-5,30.2H424c8.8,0,16,7.2,16,16V232z"/>
</g>
</svg>
